<mxfile host="app.diagrams.net" modified="2023-12-02T19:34:30.452Z" agent="Mozilla/5.0 (Windows NT 10.0; Win64; x64) AppleWebKit/537.36 (KHTML, like Gecko) Chrome/119.0.0.0 Safari/537.36" etag="pPsbkC4_WWIhuw2tJo2h" version="22.1.5" type="github">
  <diagram name="Página-1" id="dXkEAmuhtc81hldn1bWD">
    <mxGraphModel dx="2250" dy="972" grid="0" gridSize="10" guides="1" tooltips="1" connect="1" arrows="1" fold="1" page="0" pageScale="1" pageWidth="827" pageHeight="1169" math="0" shadow="0">
      <root>
        <mxCell id="0" />
        <mxCell id="1" parent="0" />
        <mxCell id="ff2y66gLTxVi3Ad-EOBb-1" value="Paciente" style="rounded=0;whiteSpace=wrap;html=1;fontSize=10;" vertex="1" parent="1">
          <mxGeometry x="-792" y="122" width="74" height="32" as="geometry" />
        </mxCell>
        <mxCell id="ff2y66gLTxVi3Ad-EOBb-2" value="" style="ellipse;whiteSpace=wrap;html=1;fontSize=16;" vertex="1" parent="1">
          <mxGeometry x="204" y="160" width="120" height="80" as="geometry" />
        </mxCell>
        <mxCell id="ff2y66gLTxVi3Ad-EOBb-3" value="" style="ellipse;whiteSpace=wrap;html=1;fontSize=16;" vertex="1" parent="1">
          <mxGeometry x="214" y="170" width="120" height="80" as="geometry" />
        </mxCell>
        <mxCell id="ff2y66gLTxVi3Ad-EOBb-4" value="" style="ellipse;whiteSpace=wrap;html=1;fontSize=16;" vertex="1" parent="1">
          <mxGeometry x="224" y="180" width="120" height="80" as="geometry" />
        </mxCell>
        <mxCell id="ff2y66gLTxVi3Ad-EOBb-5" value="" style="ellipse;whiteSpace=wrap;html=1;fontSize=16;" vertex="1" parent="1">
          <mxGeometry x="234" y="190" width="120" height="80" as="geometry" />
        </mxCell>
        <mxCell id="ff2y66gLTxVi3Ad-EOBb-6" value="" style="ellipse;whiteSpace=wrap;html=1;fontSize=16;" vertex="1" parent="1">
          <mxGeometry x="244" y="200" width="120" height="80" as="geometry" />
        </mxCell>
        <mxCell id="ff2y66gLTxVi3Ad-EOBb-7" value="" style="ellipse;whiteSpace=wrap;html=1;fontSize=16;" vertex="1" parent="1">
          <mxGeometry x="254" y="210" width="120" height="80" as="geometry" />
        </mxCell>
        <mxCell id="ff2y66gLTxVi3Ad-EOBb-8" value="" style="ellipse;whiteSpace=wrap;html=1;fontSize=16;" vertex="1" parent="1">
          <mxGeometry x="264" y="220" width="120" height="80" as="geometry" />
        </mxCell>
        <mxCell id="ff2y66gLTxVi3Ad-EOBb-9" value="&lt;u style=&quot;font-size: 10px;&quot;&gt;id_paciente&lt;/u&gt;" style="ellipse;whiteSpace=wrap;html=1;fontSize=10;" vertex="1" parent="1">
          <mxGeometry x="-773" y="52" width="97" height="32" as="geometry" />
        </mxCell>
        <mxCell id="ff2y66gLTxVi3Ad-EOBb-10" value="" style="endArrow=none;html=1;rounded=0;fontSize=10;startSize=8;endSize=8;curved=1;entryX=0.5;entryY=1;entryDx=0;entryDy=0;exitX=0.5;exitY=0;exitDx=0;exitDy=0;" edge="1" parent="1" source="ff2y66gLTxVi3Ad-EOBb-1" target="ff2y66gLTxVi3Ad-EOBb-9">
          <mxGeometry width="50" height="50" relative="1" as="geometry">
            <mxPoint x="-686" y="228" as="sourcePoint" />
            <mxPoint x="-636" y="178" as="targetPoint" />
          </mxGeometry>
        </mxCell>
        <mxCell id="ff2y66gLTxVi3Ad-EOBb-11" value="apellido" style="ellipse;whiteSpace=wrap;html=1;fontSize=10;" vertex="1" parent="1">
          <mxGeometry x="-893" y="160" width="78" height="34" as="geometry" />
        </mxCell>
        <mxCell id="ff2y66gLTxVi3Ad-EOBb-12" value="nombre" style="ellipse;whiteSpace=wrap;html=1;fontSize=10;" vertex="1" parent="1">
          <mxGeometry x="-836" y="190" width="71.5" height="29" as="geometry" />
        </mxCell>
        <mxCell id="ff2y66gLTxVi3Ad-EOBb-13" value="teléfono" style="ellipse;whiteSpace=wrap;html=1;fontSize=10;" vertex="1" parent="1">
          <mxGeometry x="-900" y="122" width="78" height="34" as="geometry" />
        </mxCell>
        <mxCell id="ff2y66gLTxVi3Ad-EOBb-14" value="dni" style="ellipse;whiteSpace=wrap;html=1;fontSize=10;" vertex="1" parent="1">
          <mxGeometry x="-893" y="84" width="48.5" height="29" as="geometry" />
        </mxCell>
        <mxCell id="ff2y66gLTxVi3Ad-EOBb-15" value="clave" style="ellipse;whiteSpace=wrap;html=1;fontSize=10;" vertex="1" parent="1">
          <mxGeometry x="-852" y="55" width="71.5" height="29" as="geometry" />
        </mxCell>
        <mxCell id="ff2y66gLTxVi3Ad-EOBb-16" style="edgeStyle=none;curved=1;rounded=0;orthogonalLoop=1;jettySize=auto;html=1;exitX=0.5;exitY=0;exitDx=0;exitDy=0;fontSize=10;startSize=8;endSize=8;" edge="1" parent="1" source="ff2y66gLTxVi3Ad-EOBb-15" target="ff2y66gLTxVi3Ad-EOBb-15">
          <mxGeometry relative="1" as="geometry" />
        </mxCell>
        <mxCell id="ff2y66gLTxVi3Ad-EOBb-17" value="" style="endArrow=none;html=1;rounded=0;fontSize=10;startSize=8;endSize=8;curved=1;entryX=0.5;entryY=1;entryDx=0;entryDy=0;exitX=0.5;exitY=0;exitDx=0;exitDy=0;" edge="1" parent="1" source="ff2y66gLTxVi3Ad-EOBb-1" target="ff2y66gLTxVi3Ad-EOBb-15">
          <mxGeometry width="50" height="50" relative="1" as="geometry">
            <mxPoint x="-686" y="228" as="sourcePoint" />
            <mxPoint x="-636" y="178" as="targetPoint" />
          </mxGeometry>
        </mxCell>
        <mxCell id="ff2y66gLTxVi3Ad-EOBb-18" value="" style="endArrow=none;html=1;rounded=0;fontSize=10;startSize=8;endSize=8;curved=1;" edge="1" parent="1">
          <mxGeometry width="50" height="50" relative="1" as="geometry">
            <mxPoint x="-754" y="123" as="sourcePoint" />
            <mxPoint x="-845" y="99" as="targetPoint" />
          </mxGeometry>
        </mxCell>
        <mxCell id="ff2y66gLTxVi3Ad-EOBb-19" value="" style="endArrow=none;html=1;rounded=0;fontSize=10;startSize=8;endSize=8;curved=1;entryX=1;entryY=0.5;entryDx=0;entryDy=0;exitX=0;exitY=0.5;exitDx=0;exitDy=0;" edge="1" parent="1" source="ff2y66gLTxVi3Ad-EOBb-1" target="ff2y66gLTxVi3Ad-EOBb-13">
          <mxGeometry width="50" height="50" relative="1" as="geometry">
            <mxPoint x="-686" y="228" as="sourcePoint" />
            <mxPoint x="-636" y="178" as="targetPoint" />
          </mxGeometry>
        </mxCell>
        <mxCell id="ff2y66gLTxVi3Ad-EOBb-20" value="" style="endArrow=none;html=1;rounded=0;fontSize=10;startSize=8;endSize=8;curved=1;exitX=1;exitY=0.5;exitDx=0;exitDy=0;" edge="1" parent="1" source="ff2y66gLTxVi3Ad-EOBb-11">
          <mxGeometry width="50" height="50" relative="1" as="geometry">
            <mxPoint x="-686" y="228" as="sourcePoint" />
            <mxPoint x="-794" y="141" as="targetPoint" />
          </mxGeometry>
        </mxCell>
        <mxCell id="ff2y66gLTxVi3Ad-EOBb-21" value="" style="endArrow=none;html=1;rounded=0;fontSize=10;startSize=8;endSize=8;curved=1;entryX=0;entryY=0.5;entryDx=0;entryDy=0;" edge="1" parent="1" source="ff2y66gLTxVi3Ad-EOBb-12" target="ff2y66gLTxVi3Ad-EOBb-1">
          <mxGeometry width="50" height="50" relative="1" as="geometry">
            <mxPoint x="-686" y="228" as="sourcePoint" />
            <mxPoint x="-636" y="178" as="targetPoint" />
          </mxGeometry>
        </mxCell>
        <mxCell id="ff2y66gLTxVi3Ad-EOBb-22" value="" style="endArrow=none;html=1;rounded=0;fontSize=10;startSize=8;endSize=8;curved=1;exitX=1;exitY=0.5;exitDx=0;exitDy=0;entryX=0;entryY=0.5;entryDx=0;entryDy=0;" edge="1" parent="1" source="ff2y66gLTxVi3Ad-EOBb-43" target="ff2y66gLTxVi3Ad-EOBb-23">
          <mxGeometry width="50" height="50" relative="1" as="geometry">
            <mxPoint x="-686" y="228" as="sourcePoint" />
            <mxPoint x="-552" y="137" as="targetPoint" />
          </mxGeometry>
        </mxCell>
        <mxCell id="ff2y66gLTxVi3Ad-EOBb-23" value="Dentista" style="rounded=0;whiteSpace=wrap;html=1;fontSize=10;" vertex="1" parent="1">
          <mxGeometry x="-538" y="122" width="71" height="32" as="geometry" />
        </mxCell>
        <mxCell id="ff2y66gLTxVi3Ad-EOBb-24" value="&lt;u style=&quot;font-size: 10px;&quot;&gt;id_odontologo&lt;/u&gt;" style="ellipse;whiteSpace=wrap;html=1;fontSize=10;" vertex="1" parent="1">
          <mxGeometry x="-607" y="76" width="97" height="32" as="geometry" />
        </mxCell>
        <mxCell id="ff2y66gLTxVi3Ad-EOBb-25" value="nombre" style="ellipse;whiteSpace=wrap;html=1;fontSize=10;" vertex="1" parent="1">
          <mxGeometry x="-449" y="149.22" width="71.5" height="29" as="geometry" />
        </mxCell>
        <mxCell id="ff2y66gLTxVi3Ad-EOBb-26" value="apellido" style="ellipse;whiteSpace=wrap;html=1;fontSize=10;" vertex="1" parent="1">
          <mxGeometry x="-461" y="98" width="78" height="34" as="geometry" />
        </mxCell>
        <mxCell id="ff2y66gLTxVi3Ad-EOBb-27" value="dni" style="ellipse;whiteSpace=wrap;html=1;fontSize=12;" vertex="1" parent="1">
          <mxGeometry x="-409" y="66" width="48.5" height="29" as="geometry" />
        </mxCell>
        <mxCell id="ff2y66gLTxVi3Ad-EOBb-28" value="correo" style="ellipse;whiteSpace=wrap;html=1;fontSize=10;" vertex="1" parent="1">
          <mxGeometry x="-760.25" y="191" width="71.5" height="29" as="geometry" />
        </mxCell>
        <mxCell id="ff2y66gLTxVi3Ad-EOBb-29" value="correo" style="ellipse;whiteSpace=wrap;html=1;fontSize=11;" vertex="1" parent="1">
          <mxGeometry x="-295" y="-26" width="71.5" height="29" as="geometry" />
        </mxCell>
        <mxCell id="ff2y66gLTxVi3Ad-EOBb-30" value="" style="endArrow=none;html=1;rounded=0;fontSize=10;startSize=8;endSize=8;curved=1;entryX=0.5;entryY=1;entryDx=0;entryDy=0;exitX=0.5;exitY=0;exitDx=0;exitDy=0;" edge="1" parent="1" source="ff2y66gLTxVi3Ad-EOBb-28" target="ff2y66gLTxVi3Ad-EOBb-1">
          <mxGeometry width="50" height="50" relative="1" as="geometry">
            <mxPoint x="-635" y="228" as="sourcePoint" />
            <mxPoint x="-585" y="178" as="targetPoint" />
          </mxGeometry>
        </mxCell>
        <mxCell id="ff2y66gLTxVi3Ad-EOBb-31" value="clave" style="ellipse;whiteSpace=wrap;html=1;fontSize=11;" vertex="1" parent="1">
          <mxGeometry x="-455" y="18" width="71.5" height="29" as="geometry" />
        </mxCell>
        <mxCell id="ff2y66gLTxVi3Ad-EOBb-32" value="teléfono" style="ellipse;whiteSpace=wrap;html=1;fontSize=11;" vertex="1" parent="1">
          <mxGeometry x="-482" y="-24" width="78" height="34" as="geometry" />
        </mxCell>
        <mxCell id="ff2y66gLTxVi3Ad-EOBb-33" value="fecha_alta" style="ellipse;whiteSpace=wrap;html=1;fontSize=11;" vertex="1" parent="1">
          <mxGeometry x="-565.5" y="23" width="92.5" height="24" as="geometry" />
        </mxCell>
        <mxCell id="ff2y66gLTxVi3Ad-EOBb-34" style="edgeStyle=none;curved=1;rounded=0;orthogonalLoop=1;jettySize=auto;html=1;entryX=0.5;entryY=1;entryDx=0;entryDy=0;fontSize=11;startSize=8;endSize=8;" edge="1" parent="1" source="ff2y66gLTxVi3Ad-EOBb-32" target="ff2y66gLTxVi3Ad-EOBb-32">
          <mxGeometry relative="1" as="geometry" />
        </mxCell>
        <mxCell id="ff2y66gLTxVi3Ad-EOBb-35" value="" style="endArrow=none;html=1;rounded=0;fontSize=10;startSize=8;endSize=8;curved=1;entryX=0.5;entryY=1;entryDx=0;entryDy=0;exitX=0.5;exitY=0;exitDx=0;exitDy=0;" edge="1" parent="1" source="ff2y66gLTxVi3Ad-EOBb-23" target="ff2y66gLTxVi3Ad-EOBb-24">
          <mxGeometry width="50" height="50" relative="1" as="geometry">
            <mxPoint x="-635" y="228" as="sourcePoint" />
            <mxPoint x="-585" y="178" as="targetPoint" />
          </mxGeometry>
        </mxCell>
        <mxCell id="ff2y66gLTxVi3Ad-EOBb-36" value="" style="endArrow=none;html=1;rounded=0;fontSize=10;startSize=8;endSize=8;curved=1;entryX=0.5;entryY=1;entryDx=0;entryDy=0;exitX=0.5;exitY=0;exitDx=0;exitDy=0;" edge="1" parent="1" source="ff2y66gLTxVi3Ad-EOBb-23" target="ff2y66gLTxVi3Ad-EOBb-33">
          <mxGeometry width="50" height="50" relative="1" as="geometry">
            <mxPoint x="-635" y="228" as="sourcePoint" />
            <mxPoint x="-585" y="178" as="targetPoint" />
          </mxGeometry>
        </mxCell>
        <mxCell id="ff2y66gLTxVi3Ad-EOBb-37" value="" style="endArrow=none;html=1;rounded=0;fontSize=12;startSize=8;endSize=8;curved=1;entryX=0.233;entryY=0.947;entryDx=0;entryDy=0;entryPerimeter=0;exitX=0.5;exitY=0;exitDx=0;exitDy=0;" edge="1" parent="1" source="ff2y66gLTxVi3Ad-EOBb-23" target="ff2y66gLTxVi3Ad-EOBb-32">
          <mxGeometry width="50" height="50" relative="1" as="geometry">
            <mxPoint x="-635" y="228" as="sourcePoint" />
            <mxPoint x="-585" y="178" as="targetPoint" />
          </mxGeometry>
        </mxCell>
        <mxCell id="ff2y66gLTxVi3Ad-EOBb-38" value="" style="endArrow=none;html=1;rounded=0;fontSize=12;startSize=8;endSize=8;curved=1;entryX=0.02;entryY=0.786;entryDx=0;entryDy=0;entryPerimeter=0;exitX=0.5;exitY=0;exitDx=0;exitDy=0;" edge="1" parent="1" source="ff2y66gLTxVi3Ad-EOBb-23" target="ff2y66gLTxVi3Ad-EOBb-31">
          <mxGeometry width="50" height="50" relative="1" as="geometry">
            <mxPoint x="-635" y="228" as="sourcePoint" />
            <mxPoint x="-585" y="178" as="targetPoint" />
          </mxGeometry>
        </mxCell>
        <mxCell id="ff2y66gLTxVi3Ad-EOBb-39" value="" style="endArrow=none;html=1;rounded=0;fontSize=12;startSize=8;endSize=8;curved=1;entryX=0;entryY=0.5;entryDx=0;entryDy=0;exitX=0.5;exitY=0;exitDx=0;exitDy=0;" edge="1" parent="1" source="ff2y66gLTxVi3Ad-EOBb-23" target="ff2y66gLTxVi3Ad-EOBb-29">
          <mxGeometry width="50" height="50" relative="1" as="geometry">
            <mxPoint x="-635" y="228" as="sourcePoint" />
            <mxPoint x="-585" y="178" as="targetPoint" />
          </mxGeometry>
        </mxCell>
        <mxCell id="ff2y66gLTxVi3Ad-EOBb-40" value="" style="endArrow=none;html=1;rounded=0;fontSize=10;startSize=8;endSize=8;curved=1;entryX=0;entryY=0.5;entryDx=0;entryDy=0;exitX=0.5;exitY=0;exitDx=0;exitDy=0;" edge="1" parent="1" source="ff2y66gLTxVi3Ad-EOBb-23" target="ff2y66gLTxVi3Ad-EOBb-27">
          <mxGeometry width="50" height="50" relative="1" as="geometry">
            <mxPoint x="-635" y="228" as="sourcePoint" />
            <mxPoint x="-585" y="178" as="targetPoint" />
          </mxGeometry>
        </mxCell>
        <mxCell id="ff2y66gLTxVi3Ad-EOBb-41" value="" style="endArrow=none;html=1;rounded=0;fontSize=10;startSize=8;endSize=8;curved=1;entryX=0;entryY=0.5;entryDx=0;entryDy=0;exitX=1;exitY=0.5;exitDx=0;exitDy=0;" edge="1" parent="1" source="ff2y66gLTxVi3Ad-EOBb-23" target="ff2y66gLTxVi3Ad-EOBb-26">
          <mxGeometry width="50" height="50" relative="1" as="geometry">
            <mxPoint x="-635" y="228" as="sourcePoint" />
            <mxPoint x="-585" y="178" as="targetPoint" />
          </mxGeometry>
        </mxCell>
        <mxCell id="ff2y66gLTxVi3Ad-EOBb-42" value="" style="endArrow=none;html=1;rounded=0;fontSize=10;startSize=8;endSize=8;curved=1;entryX=0;entryY=0.5;entryDx=0;entryDy=0;exitX=1;exitY=0.5;exitDx=0;exitDy=0;" edge="1" parent="1" source="ff2y66gLTxVi3Ad-EOBb-23" target="ff2y66gLTxVi3Ad-EOBb-25">
          <mxGeometry width="50" height="50" relative="1" as="geometry">
            <mxPoint x="-635" y="228" as="sourcePoint" />
            <mxPoint x="-585" y="178" as="targetPoint" />
          </mxGeometry>
        </mxCell>
        <mxCell id="ff2y66gLTxVi3Ad-EOBb-44" value="" style="endArrow=none;html=1;rounded=0;fontSize=10;startSize=8;endSize=8;curved=1;exitX=1;exitY=0.5;exitDx=0;exitDy=0;entryX=0;entryY=0.5;entryDx=0;entryDy=0;" edge="1" parent="1" source="ff2y66gLTxVi3Ad-EOBb-1" target="ff2y66gLTxVi3Ad-EOBb-43">
          <mxGeometry width="50" height="50" relative="1" as="geometry">
            <mxPoint x="-718" y="138" as="sourcePoint" />
            <mxPoint x="-538" y="138" as="targetPoint" />
          </mxGeometry>
        </mxCell>
        <mxCell id="ff2y66gLTxVi3Ad-EOBb-43" value="atiende" style="rhombus;whiteSpace=wrap;html=1;fontSize=10;" vertex="1" parent="1">
          <mxGeometry x="-671" y="123" width="84" height="33" as="geometry" />
        </mxCell>
        <mxCell id="ff2y66gLTxVi3Ad-EOBb-45" value="1" style="text;html=1;strokeColor=none;fillColor=none;align=center;verticalAlign=middle;whiteSpace=wrap;rounded=0;fontSize=10;" vertex="1" parent="1">
          <mxGeometry x="-680" y="115" width="40" height="14" as="geometry" />
        </mxCell>
        <mxCell id="ff2y66gLTxVi3Ad-EOBb-47" value="1" style="text;html=1;strokeColor=none;fillColor=none;align=center;verticalAlign=middle;whiteSpace=wrap;rounded=0;fontSize=10;" vertex="1" parent="1">
          <mxGeometry x="-624" y="111" width="44" height="18" as="geometry" />
        </mxCell>
        <mxCell id="ff2y66gLTxVi3Ad-EOBb-48" value="" style="endArrow=none;html=1;rounded=0;fontSize=10;startSize=8;endSize=8;curved=1;entryX=0.5;entryY=1;entryDx=0;entryDy=0;exitX=0.296;exitY=0.109;exitDx=0;exitDy=0;exitPerimeter=0;" edge="1" parent="1" source="ff2y66gLTxVi3Ad-EOBb-49" target="ff2y66gLTxVi3Ad-EOBb-23">
          <mxGeometry width="50" height="50" relative="1" as="geometry">
            <mxPoint x="-502" y="180" as="sourcePoint" />
            <mxPoint x="-585" y="178" as="targetPoint" />
          </mxGeometry>
        </mxCell>
        <mxCell id="ff2y66gLTxVi3Ad-EOBb-49" value="" style="triangle;whiteSpace=wrap;html=1;fontSize=10;rotation=-30;" vertex="1" parent="1">
          <mxGeometry x="-504.00000000000006" y="159" width="31" height="41" as="geometry" />
        </mxCell>
        <mxCell id="ff2y66gLTxVi3Ad-EOBb-51" value="" style="endArrow=none;html=1;rounded=0;fontSize=10;startSize=8;endSize=8;curved=1;entryX=-0.071;entryY=1.03;entryDx=0;entryDy=0;entryPerimeter=0;exitX=0.5;exitY=0;exitDx=0;exitDy=0;" edge="1" parent="1" source="ff2y66gLTxVi3Ad-EOBb-55" target="ff2y66gLTxVi3Ad-EOBb-49">
          <mxGeometry width="50" height="50" relative="1" as="geometry">
            <mxPoint x="-486" y="246" as="sourcePoint" />
            <mxPoint x="-585" y="178" as="targetPoint" />
          </mxGeometry>
        </mxCell>
        <mxCell id="ff2y66gLTxVi3Ad-EOBb-54" value="General" style="ellipse;whiteSpace=wrap;html=1;fontSize=10;" vertex="1" parent="1">
          <mxGeometry x="-529" y="229" width="62" height="20" as="geometry" />
        </mxCell>
        <mxCell id="ff2y66gLTxVi3Ad-EOBb-57" value="" style="edgeStyle=isometricEdgeStyle;endArrow=none;html=1;elbow=vertical;rounded=0;fontSize=10;startSize=8;endSize=8;curved=1;" edge="1" parent="1">
          <mxGeometry width="50" height="100" relative="1" as="geometry">
            <mxPoint x="-430" y="210.02" as="sourcePoint" />
            <mxPoint x="-515" y="219.02" as="targetPoint" />
            <Array as="points" />
          </mxGeometry>
        </mxCell>
        <mxCell id="ff2y66gLTxVi3Ad-EOBb-58" value="especialidad" style="text;html=1;strokeColor=none;fillColor=none;align=center;verticalAlign=middle;whiteSpace=wrap;rounded=0;fontSize=10;" vertex="1" parent="1">
          <mxGeometry x="-535" y="174" width="86" height="17" as="geometry" />
        </mxCell>
        <mxCell id="ff2y66gLTxVi3Ad-EOBb-62" value="" style="endArrow=none;html=1;rounded=0;fontSize=12;startSize=8;endSize=8;curved=1;exitX=0.5;exitY=0;exitDx=0;exitDy=0;" edge="1" parent="1" source="ff2y66gLTxVi3Ad-EOBb-43">
          <mxGeometry width="50" height="50" relative="1" as="geometry">
            <mxPoint x="-635" y="228" as="sourcePoint" />
            <mxPoint x="-629" y="41" as="targetPoint" />
          </mxGeometry>
        </mxCell>
        <mxCell id="ff2y66gLTxVi3Ad-EOBb-63" value="Cita" style="rounded=0;whiteSpace=wrap;html=1;fontSize=11;" vertex="1" parent="1">
          <mxGeometry x="-655" y="14" width="52" height="29" as="geometry" />
        </mxCell>
        <mxCell id="ff2y66gLTxVi3Ad-EOBb-64" value="id_paciente" style="ellipse;whiteSpace=wrap;html=1;fontSize=11;" vertex="1" parent="1">
          <mxGeometry x="-750" y="-78" width="103" height="26" as="geometry" />
        </mxCell>
        <mxCell id="ff2y66gLTxVi3Ad-EOBb-65" value="id_odontologo" style="ellipse;whiteSpace=wrap;html=1;fontSize=11;" vertex="1" parent="1">
          <mxGeometry x="-852" y="-47" width="120" height="28" as="geometry" />
        </mxCell>
        <mxCell id="ff2y66gLTxVi3Ad-EOBb-66" value="&lt;u style=&quot;font-size: 11px;&quot;&gt;id_cita&lt;/u&gt;" style="ellipse;whiteSpace=wrap;html=1;fontSize=11;" vertex="1" parent="1">
          <mxGeometry x="-799" width="69" height="26" as="geometry" />
        </mxCell>
        <mxCell id="ff2y66gLTxVi3Ad-EOBb-67" value="fecha" style="ellipse;whiteSpace=wrap;html=1;fontSize=11;" vertex="1" parent="1">
          <mxGeometry x="-666" y="-52" width="63" height="26" as="geometry" />
        </mxCell>
        <mxCell id="ff2y66gLTxVi3Ad-EOBb-68" value="hora" style="ellipse;whiteSpace=wrap;html=1;fontSize=11;" vertex="1" parent="1">
          <mxGeometry x="-620" y="-26" width="63" height="26" as="geometry" />
        </mxCell>
        <mxCell id="ff2y66gLTxVi3Ad-EOBb-69" style="edgeStyle=none;curved=1;rounded=0;orthogonalLoop=1;jettySize=auto;html=1;exitX=0.5;exitY=1;exitDx=0;exitDy=0;fontSize=11;startSize=8;endSize=8;" edge="1" parent="1" source="ff2y66gLTxVi3Ad-EOBb-68" target="ff2y66gLTxVi3Ad-EOBb-68">
          <mxGeometry relative="1" as="geometry" />
        </mxCell>
        <mxCell id="ff2y66gLTxVi3Ad-EOBb-70" value="" style="endArrow=none;html=1;rounded=0;fontSize=11;startSize=8;endSize=8;curved=1;entryX=1;entryY=0.5;entryDx=0;entryDy=0;exitX=0.5;exitY=0;exitDx=0;exitDy=0;" edge="1" parent="1" source="ff2y66gLTxVi3Ad-EOBb-63" target="ff2y66gLTxVi3Ad-EOBb-66">
          <mxGeometry width="50" height="50" relative="1" as="geometry">
            <mxPoint x="-635" y="28" as="sourcePoint" />
            <mxPoint x="-585" y="-22" as="targetPoint" />
          </mxGeometry>
        </mxCell>
        <mxCell id="ff2y66gLTxVi3Ad-EOBb-71" value="" style="endArrow=none;html=1;rounded=0;fontSize=11;startSize=8;endSize=8;curved=1;entryX=1;entryY=0.5;entryDx=0;entryDy=0;exitX=0.5;exitY=0;exitDx=0;exitDy=0;" edge="1" parent="1" source="ff2y66gLTxVi3Ad-EOBb-63" target="ff2y66gLTxVi3Ad-EOBb-65">
          <mxGeometry width="50" height="50" relative="1" as="geometry">
            <mxPoint x="-635" y="28" as="sourcePoint" />
            <mxPoint x="-585" y="-22" as="targetPoint" />
          </mxGeometry>
        </mxCell>
        <mxCell id="ff2y66gLTxVi3Ad-EOBb-72" value="" style="endArrow=none;html=1;rounded=0;fontSize=11;startSize=8;endSize=8;curved=1;entryX=0.5;entryY=1;entryDx=0;entryDy=0;" edge="1" parent="1" target="ff2y66gLTxVi3Ad-EOBb-64">
          <mxGeometry width="50" height="50" relative="1" as="geometry">
            <mxPoint x="-633" y="14" as="sourcePoint" />
            <mxPoint x="-585" y="-22" as="targetPoint" />
          </mxGeometry>
        </mxCell>
        <mxCell id="ff2y66gLTxVi3Ad-EOBb-73" value="" style="endArrow=none;html=1;rounded=0;fontSize=11;startSize=8;endSize=8;curved=1;entryX=0.5;entryY=1;entryDx=0;entryDy=0;" edge="1" parent="1" target="ff2y66gLTxVi3Ad-EOBb-67">
          <mxGeometry width="50" height="50" relative="1" as="geometry">
            <mxPoint x="-630" y="11" as="sourcePoint" />
            <mxPoint x="-585" y="-22" as="targetPoint" />
          </mxGeometry>
        </mxCell>
        <mxCell id="ff2y66gLTxVi3Ad-EOBb-74" value="" style="endArrow=none;html=1;rounded=0;fontSize=11;startSize=8;endSize=8;curved=1;entryX=0.362;entryY=0.992;entryDx=0;entryDy=0;entryPerimeter=0;exitX=0.5;exitY=0;exitDx=0;exitDy=0;" edge="1" parent="1" source="ff2y66gLTxVi3Ad-EOBb-63" target="ff2y66gLTxVi3Ad-EOBb-68">
          <mxGeometry width="50" height="50" relative="1" as="geometry">
            <mxPoint x="-635" y="28" as="sourcePoint" />
            <mxPoint x="-585" y="-22" as="targetPoint" />
          </mxGeometry>
        </mxCell>
        <mxCell id="ff2y66gLTxVi3Ad-EOBb-76" value="Secretario" style="rounded=0;whiteSpace=wrap;html=1;fontSize=10;" vertex="1" parent="1">
          <mxGeometry x="-652" y="242" width="76" height="38" as="geometry" />
        </mxCell>
        <mxCell id="ff2y66gLTxVi3Ad-EOBb-77" value="" style="endArrow=none;html=1;rounded=0;fontSize=10;startSize=8;endSize=8;curved=1;entryX=0.5;entryY=1;entryDx=0;entryDy=0;exitX=0.5;exitY=0;exitDx=0;exitDy=0;" edge="1" parent="1" source="ff2y66gLTxVi3Ad-EOBb-76" target="ff2y66gLTxVi3Ad-EOBb-23">
          <mxGeometry width="50" height="50" relative="1" as="geometry">
            <mxPoint x="-502" y="313" as="sourcePoint" />
            <mxPoint x="-374" y="178" as="targetPoint" />
          </mxGeometry>
        </mxCell>
        <mxCell id="ff2y66gLTxVi3Ad-EOBb-78" value="dirige" style="rhombus;whiteSpace=wrap;html=1;fontSize=10;" vertex="1" parent="1">
          <mxGeometry x="-598.5" y="191" width="80" height="38" as="geometry" />
        </mxCell>
        <mxCell id="ff2y66gLTxVi3Ad-EOBb-80" value="n" style="text;html=1;strokeColor=none;fillColor=none;align=center;verticalAlign=middle;whiteSpace=wrap;rounded=0;fontSize=10;" vertex="1" parent="1">
          <mxGeometry x="-601" y="178.22" width="39" height="21.78" as="geometry" />
        </mxCell>
        <mxCell id="ff2y66gLTxVi3Ad-EOBb-82" value="1" style="text;html=1;strokeColor=none;fillColor=none;align=center;verticalAlign=middle;whiteSpace=wrap;rounded=0;fontSize=10;" vertex="1" parent="1">
          <mxGeometry x="-620" y="210" width="50" height="19" as="geometry" />
        </mxCell>
        <mxCell id="ff2y66gLTxVi3Ad-EOBb-84" value="id_secretario" style="ellipse;whiteSpace=wrap;html=1;fontSize=11;fontStyle=4" vertex="1" parent="1">
          <mxGeometry x="-718" y="333" width="103" height="36" as="geometry" />
        </mxCell>
        <mxCell id="ff2y66gLTxVi3Ad-EOBb-85" value="nombre" style="ellipse;whiteSpace=wrap;html=1;fontSize=11;" vertex="1" parent="1">
          <mxGeometry x="-576" y="335" width="71.5" height="29" as="geometry" />
        </mxCell>
        <mxCell id="ff2y66gLTxVi3Ad-EOBb-86" value="apellido" style="ellipse;whiteSpace=wrap;html=1;fontSize=11;" vertex="1" parent="1">
          <mxGeometry x="-603" y="364" width="78" height="34" as="geometry" />
        </mxCell>
        <mxCell id="ff2y66gLTxVi3Ad-EOBb-87" value="dni" style="ellipse;whiteSpace=wrap;html=1;fontSize=11;" vertex="1" parent="1">
          <mxGeometry x="-718" y="294" width="48.5" height="29" as="geometry" />
        </mxCell>
        <mxCell id="ff2y66gLTxVi3Ad-EOBb-88" value="correo" style="ellipse;whiteSpace=wrap;html=1;fontSize=11;" vertex="1" parent="1">
          <mxGeometry x="-652" y="392" width="71.5" height="29" as="geometry" />
        </mxCell>
        <mxCell id="ff2y66gLTxVi3Ad-EOBb-89" value="clave" style="ellipse;whiteSpace=wrap;html=1;fontSize=10;" vertex="1" parent="1">
          <mxGeometry x="-564.5" y="271" width="71.5" height="29" as="geometry" />
        </mxCell>
        <mxCell id="ff2y66gLTxVi3Ad-EOBb-90" value="teléfono" style="ellipse;whiteSpace=wrap;html=1;fontSize=12;" vertex="1" parent="1">
          <mxGeometry x="-551" y="301" width="78" height="34" as="geometry" />
        </mxCell>
        <mxCell id="ff2y66gLTxVi3Ad-EOBb-91" style="edgeStyle=none;curved=1;rounded=0;orthogonalLoop=1;jettySize=auto;html=1;exitX=0.5;exitY=1;exitDx=0;exitDy=0;fontSize=11;startSize=8;endSize=8;" edge="1" parent="1" source="ff2y66gLTxVi3Ad-EOBb-85" target="ff2y66gLTxVi3Ad-EOBb-85">
          <mxGeometry relative="1" as="geometry" />
        </mxCell>
        <mxCell id="ff2y66gLTxVi3Ad-EOBb-92" value="" style="endArrow=none;html=1;rounded=0;fontSize=12;startSize=8;endSize=8;curved=1;exitX=0.5;exitY=1;exitDx=0;exitDy=0;entryX=0.5;entryY=0;entryDx=0;entryDy=0;" edge="1" parent="1" source="ff2y66gLTxVi3Ad-EOBb-76" target="ff2y66gLTxVi3Ad-EOBb-84">
          <mxGeometry width="50" height="50" relative="1" as="geometry">
            <mxPoint x="-363" y="328" as="sourcePoint" />
            <mxPoint x="-313" y="278" as="targetPoint" />
          </mxGeometry>
        </mxCell>
        <mxCell id="ff2y66gLTxVi3Ad-EOBb-93" value="" style="endArrow=none;html=1;rounded=0;fontSize=12;startSize=8;endSize=8;curved=1;entryX=0.5;entryY=0;entryDx=0;entryDy=0;exitX=0.5;exitY=1;exitDx=0;exitDy=0;" edge="1" parent="1" source="ff2y66gLTxVi3Ad-EOBb-76" target="ff2y66gLTxVi3Ad-EOBb-87">
          <mxGeometry width="50" height="50" relative="1" as="geometry">
            <mxPoint x="-610" y="291" as="sourcePoint" />
            <mxPoint x="-313" y="278" as="targetPoint" />
          </mxGeometry>
        </mxCell>
        <mxCell id="ff2y66gLTxVi3Ad-EOBb-94" value="" style="endArrow=none;html=1;rounded=0;fontSize=12;startSize=8;endSize=8;curved=1;entryX=0.5;entryY=1;entryDx=0;entryDy=0;exitX=0.5;exitY=0;exitDx=0;exitDy=0;" edge="1" parent="1" source="ff2y66gLTxVi3Ad-EOBb-88" target="ff2y66gLTxVi3Ad-EOBb-76">
          <mxGeometry width="50" height="50" relative="1" as="geometry">
            <mxPoint x="-363" y="328" as="sourcePoint" />
            <mxPoint x="-313" y="278" as="targetPoint" />
          </mxGeometry>
        </mxCell>
        <mxCell id="ff2y66gLTxVi3Ad-EOBb-95" value="" style="endArrow=none;html=1;rounded=0;fontSize=12;startSize=8;endSize=8;curved=1;entryX=0.5;entryY=1;entryDx=0;entryDy=0;exitX=0;exitY=0;exitDx=0;exitDy=0;" edge="1" parent="1" source="ff2y66gLTxVi3Ad-EOBb-86" target="ff2y66gLTxVi3Ad-EOBb-76">
          <mxGeometry width="50" height="50" relative="1" as="geometry">
            <mxPoint x="-363" y="328" as="sourcePoint" />
            <mxPoint x="-313" y="278" as="targetPoint" />
          </mxGeometry>
        </mxCell>
        <mxCell id="ff2y66gLTxVi3Ad-EOBb-96" value="" style="endArrow=none;html=1;rounded=0;fontSize=12;startSize=8;endSize=8;curved=1;entryX=0.5;entryY=1;entryDx=0;entryDy=0;exitX=0;exitY=0.5;exitDx=0;exitDy=0;" edge="1" parent="1" source="ff2y66gLTxVi3Ad-EOBb-85" target="ff2y66gLTxVi3Ad-EOBb-76">
          <mxGeometry width="50" height="50" relative="1" as="geometry">
            <mxPoint x="-363" y="328" as="sourcePoint" />
            <mxPoint x="-313" y="278" as="targetPoint" />
          </mxGeometry>
        </mxCell>
        <mxCell id="ff2y66gLTxVi3Ad-EOBb-97" value="" style="endArrow=none;html=1;rounded=0;fontSize=12;startSize=8;endSize=8;curved=1;entryX=0.5;entryY=1;entryDx=0;entryDy=0;exitX=0;exitY=0.5;exitDx=0;exitDy=0;" edge="1" parent="1" source="ff2y66gLTxVi3Ad-EOBb-90" target="ff2y66gLTxVi3Ad-EOBb-76">
          <mxGeometry width="50" height="50" relative="1" as="geometry">
            <mxPoint x="-363" y="328" as="sourcePoint" />
            <mxPoint x="-313" y="278" as="targetPoint" />
          </mxGeometry>
        </mxCell>
        <mxCell id="ff2y66gLTxVi3Ad-EOBb-98" value="" style="endArrow=none;html=1;rounded=0;fontSize=10;startSize=8;endSize=8;curved=1;entryX=0.608;entryY=1.1;entryDx=0;entryDy=0;entryPerimeter=0;exitX=0;exitY=0.5;exitDx=0;exitDy=0;" edge="1" parent="1" source="ff2y66gLTxVi3Ad-EOBb-89" target="ff2y66gLTxVi3Ad-EOBb-76">
          <mxGeometry width="50" height="50" relative="1" as="geometry">
            <mxPoint x="-363" y="328" as="sourcePoint" />
            <mxPoint x="-313" y="278" as="targetPoint" />
          </mxGeometry>
        </mxCell>
        <mxCell id="ff2y66gLTxVi3Ad-EOBb-55" value="Especialista" style="ellipse;whiteSpace=wrap;html=1;fontSize=10;" vertex="1" parent="1">
          <mxGeometry x="-461" y="220" width="64.25" height="27" as="geometry" />
        </mxCell>
        <mxCell id="ff2y66gLTxVi3Ad-EOBb-101" value="" style="endArrow=none;html=1;rounded=0;fontSize=12;startSize=8;endSize=8;curved=1;exitX=0.5;exitY=0;exitDx=0;exitDy=0;" edge="1" parent="1" source="ff2y66gLTxVi3Ad-EOBb-54">
          <mxGeometry width="50" height="50" relative="1" as="geometry">
            <mxPoint x="-631" y="226" as="sourcePoint" />
            <mxPoint x="-490" y="206" as="targetPoint" />
          </mxGeometry>
        </mxCell>
        <mxCell id="ff2y66gLTxVi3Ad-EOBb-104" style="edgeStyle=none;curved=1;rounded=0;orthogonalLoop=1;jettySize=auto;html=1;exitX=0.5;exitY=0;exitDx=0;exitDy=0;fontSize=12;startSize=8;endSize=8;" edge="1" parent="1" source="ff2y66gLTxVi3Ad-EOBb-58" target="ff2y66gLTxVi3Ad-EOBb-58">
          <mxGeometry relative="1" as="geometry" />
        </mxCell>
        <mxCell id="ff2y66gLTxVi3Ad-EOBb-105" value="turno" style="rounded=0;whiteSpace=wrap;html=1;fontSize=10;" vertex="1" parent="1">
          <mxGeometry x="-227" y="122" width="71" height="32" as="geometry" />
        </mxCell>
        <mxCell id="ff2y66gLTxVi3Ad-EOBb-106" value="" style="endArrow=none;html=1;rounded=0;fontSize=12;startSize=8;endSize=8;curved=1;entryX=0;entryY=0.5;entryDx=0;entryDy=0;" edge="1" parent="1" source="ff2y66gLTxVi3Ad-EOBb-107" target="ff2y66gLTxVi3Ad-EOBb-105">
          <mxGeometry width="50" height="50" relative="1" as="geometry">
            <mxPoint x="-468" y="138" as="sourcePoint" />
            <mxPoint x="-581" y="176" as="targetPoint" />
          </mxGeometry>
        </mxCell>
        <mxCell id="ff2y66gLTxVi3Ad-EOBb-108" value="" style="endArrow=none;html=1;rounded=0;fontSize=12;startSize=8;endSize=8;curved=1;entryX=0;entryY=0.5;entryDx=0;entryDy=0;" edge="1" parent="1" target="ff2y66gLTxVi3Ad-EOBb-107">
          <mxGeometry width="50" height="50" relative="1" as="geometry">
            <mxPoint x="-468" y="138" as="sourcePoint" />
            <mxPoint x="-227" y="138" as="targetPoint" />
          </mxGeometry>
        </mxCell>
        <mxCell id="ff2y66gLTxVi3Ad-EOBb-107" value="&lt;font style=&quot;font-size: 12px;&quot;&gt;Posee&lt;/font&gt;" style="rhombus;whiteSpace=wrap;html=1;fontSize=16;" vertex="1" parent="1">
          <mxGeometry x="-366" y="127" width="80" height="24" as="geometry" />
        </mxCell>
        <mxCell id="ff2y66gLTxVi3Ad-EOBb-109" value="&lt;font style=&quot;font-size: 12px;&quot;&gt;id_odontologo&lt;/font&gt;" style="ellipse;whiteSpace=wrap;html=1;fontSize=16;" vertex="1" parent="1">
          <mxGeometry x="-234" y="38" width="93" height="28" as="geometry" />
        </mxCell>
        <mxCell id="ff2y66gLTxVi3Ad-EOBb-110" value="&lt;u style=&quot;font-size: 11px;&quot;&gt;id_turno&lt;/u&gt;" style="ellipse;whiteSpace=wrap;html=1;fontSize=11;" vertex="1" parent="1">
          <mxGeometry x="-263" y="76" width="69" height="26" as="geometry" />
        </mxCell>
        <mxCell id="ff2y66gLTxVi3Ad-EOBb-112" value="&lt;font style=&quot;font-size: 12px;&quot;&gt;dia&lt;/font&gt;" style="ellipse;whiteSpace=wrap;html=1;fontSize=16;" vertex="1" parent="1">
          <mxGeometry x="-137" y="82" width="49" height="26" as="geometry" />
        </mxCell>
        <mxCell id="ff2y66gLTxVi3Ad-EOBb-113" value="&lt;font style=&quot;font-size: 12px;&quot;&gt;hora_inicio&lt;/font&gt;" style="ellipse;whiteSpace=wrap;html=1;fontSize=16;" vertex="1" parent="1">
          <mxGeometry x="-131" y="121" width="92.5" height="30" as="geometry" />
        </mxCell>
        <mxCell id="ff2y66gLTxVi3Ad-EOBb-114" value="&lt;font style=&quot;font-size: 12px;&quot;&gt;hora_fin&lt;/font&gt;" style="ellipse;whiteSpace=wrap;html=1;fontSize=16;" vertex="1" parent="1">
          <mxGeometry x="-121" y="30" width="66" height="27" as="geometry" />
        </mxCell>
        <mxCell id="ff2y66gLTxVi3Ad-EOBb-115" value="" style="endArrow=none;html=1;rounded=0;fontSize=12;startSize=8;endSize=8;curved=1;entryX=0.5;entryY=1;entryDx=0;entryDy=0;exitX=0.5;exitY=0;exitDx=0;exitDy=0;" edge="1" parent="1" source="ff2y66gLTxVi3Ad-EOBb-105" target="ff2y66gLTxVi3Ad-EOBb-110">
          <mxGeometry width="50" height="50" relative="1" as="geometry">
            <mxPoint x="-421" y="226" as="sourcePoint" />
            <mxPoint x="-371" y="176" as="targetPoint" />
          </mxGeometry>
        </mxCell>
        <mxCell id="ff2y66gLTxVi3Ad-EOBb-116" value="" style="endArrow=none;html=1;rounded=0;fontSize=12;startSize=8;endSize=8;curved=1;exitX=0.5;exitY=0;exitDx=0;exitDy=0;entryX=0;entryY=0.5;entryDx=0;entryDy=0;" edge="1" parent="1" source="ff2y66gLTxVi3Ad-EOBb-105" target="ff2y66gLTxVi3Ad-EOBb-112">
          <mxGeometry width="50" height="50" relative="1" as="geometry">
            <mxPoint x="-421" y="226" as="sourcePoint" />
            <mxPoint x="-371" y="176" as="targetPoint" />
          </mxGeometry>
        </mxCell>
        <mxCell id="ff2y66gLTxVi3Ad-EOBb-117" value="" style="endArrow=none;html=1;rounded=0;fontSize=12;startSize=8;endSize=8;curved=1;entryX=0.5;entryY=1;entryDx=0;entryDy=0;exitX=0.5;exitY=0;exitDx=0;exitDy=0;" edge="1" parent="1" source="ff2y66gLTxVi3Ad-EOBb-105" target="ff2y66gLTxVi3Ad-EOBb-109">
          <mxGeometry width="50" height="50" relative="1" as="geometry">
            <mxPoint x="-421" y="226" as="sourcePoint" />
            <mxPoint x="-371" y="176" as="targetPoint" />
          </mxGeometry>
        </mxCell>
        <mxCell id="ff2y66gLTxVi3Ad-EOBb-118" value="" style="endArrow=none;html=1;rounded=0;fontSize=12;startSize=8;endSize=8;curved=1;entryX=0.5;entryY=0;entryDx=0;entryDy=0;exitX=0.309;exitY=-0.077;exitDx=0;exitDy=0;exitPerimeter=0;" edge="1" parent="1" source="ff2y66gLTxVi3Ad-EOBb-113" target="ff2y66gLTxVi3Ad-EOBb-105">
          <mxGeometry width="50" height="50" relative="1" as="geometry">
            <mxPoint x="-421" y="226" as="sourcePoint" />
            <mxPoint x="-371" y="176" as="targetPoint" />
          </mxGeometry>
        </mxCell>
        <mxCell id="ff2y66gLTxVi3Ad-EOBb-119" value="" style="endArrow=none;html=1;rounded=0;fontSize=12;startSize=8;endSize=8;curved=1;entryX=0;entryY=1;entryDx=0;entryDy=0;exitX=0.5;exitY=0;exitDx=0;exitDy=0;" edge="1" parent="1" source="ff2y66gLTxVi3Ad-EOBb-105" target="ff2y66gLTxVi3Ad-EOBb-114">
          <mxGeometry width="50" height="50" relative="1" as="geometry">
            <mxPoint x="-421" y="226" as="sourcePoint" />
            <mxPoint x="-381" y="188" as="targetPoint" />
          </mxGeometry>
        </mxCell>
        <mxCell id="ff2y66gLTxVi3Ad-EOBb-120" value="1" style="text;html=1;strokeColor=none;fillColor=none;align=center;verticalAlign=middle;whiteSpace=wrap;rounded=0;fontSize=16;" vertex="1" parent="1">
          <mxGeometry x="-360.5" y="113" width="24" height="14" as="geometry" />
        </mxCell>
        <mxCell id="ff2y66gLTxVi3Ad-EOBb-121" value="n" style="text;html=1;strokeColor=none;fillColor=none;align=center;verticalAlign=middle;whiteSpace=wrap;rounded=0;fontSize=16;" vertex="1" parent="1">
          <mxGeometry x="-313" y="111" width="27" height="18" as="geometry" />
        </mxCell>
      </root>
    </mxGraphModel>
  </diagram>
</mxfile>
